HIERARCHY
ROOT Hips
{
  OFFSET 196.326 95.9168 97.7182
  CHANNELS 6 Xposition Yposition Zposition Zrotation Xrotation Yrotation
  JOINT LeftUpLeg
  {
    OFFSET 8.64259 1.95398 -2.38835
    CHANNELS 3 Zrotation Xrotation Yrotation
    JOINT LeftLeg
    {
      OFFSET 43.7702 0 0
      CHANNELS 3 Zrotation Xrotation Yrotation
      JOINT LeftFoot
      {
        OFFSET 40.6238 0 0
        CHANNELS 3 Zrotation Xrotation Yrotation
        JOINT LeftToeBase
        {
          OFFSET 12.7242 0 0
          CHANNELS 3 Zrotation Xrotation Yrotation
          End Site
          {
            OFFSET 0 0 0
          }
        }
      }
    }
  }
  JOINT RightUpLeg
  {
    OFFSET -8.2249 1.95398 -2.59336
    CHANNELS 3 Zrotation Xrotation Yrotation
    JOINT RightLeg
    {
      OFFSET 43.5653 0 0
      CHANNELS 3 Zrotation Xrotation Yrotation
      JOINT RightFoot
      {
        OFFSET 40.6238 0 0
        CHANNELS 3 Zrotation Xrotation Yrotation
        JOINT RightToeBase
        {
          OFFSET 12.7242 0 0
          CHANNELS 3 Zrotation Xrotation Yrotation
          End Site
          {
            OFFSET 0 0 0
          }
        }
      }
    }
  }
  JOINT Spine
  {
    OFFSET 0.165834 0.87714 6.61349
    CHANNELS 3 Zrotation Xrotation Yrotation
    JOINT Spine1
    {
      OFFSET 7.38963 1.71661e-005 0
      CHANNELS 3 Zrotation Xrotation Yrotation
      JOINT Spine2
      {
        OFFSET 11.9445 1.14441e-005 0
        CHANNELS 3 Zrotation Xrotation Yrotation
        JOINT Spine3
        {
          OFFSET 14.7254 4.19617e-005 0
          CHANNELS 3 Zrotation Xrotation Yrotation
          JOINT Spine4
          {
            OFFSET 10.9679 0 0
            CHANNELS 3 Zrotation Xrotation Yrotation
            JOINT RightShoulder
            {
              OFFSET 2.46616 -1.6653 3.69651
              CHANNELS 3 Zrotation Xrotation Yrotation
              JOINT RightArm
              {
                OFFSET 13.0012 0 0
                CHANNELS 3 Zrotation Xrotation Yrotation
                JOINT RightForeArm
                {
                  OFFSET 28.7848 1.52588e-005 0
                  CHANNELS 3 Zrotation Xrotation Yrotation
                  JOINT RightHand
                  {
                    OFFSET 26.5688 1.52588e-005 0
                    CHANNELS 3 Zrotation Xrotation Yrotation
                    End Site
                    {
                      OFFSET 0 0 0
                    }
                  }
                }
              }
            }
            JOINT LeftShoulder
            {
              OFFSET 2.38034 -1.29275 -3.75231
              CHANNELS 3 Zrotation Xrotation Yrotation
              JOINT LeftArm
              {
                OFFSET 16.3182 6.10351e-005 0
                CHANNELS 3 Zrotation Xrotation Yrotation
                JOINT LeftForeArm
                {
                  OFFSET 27.0901 0 0
                  CHANNELS 3 Zrotation Xrotation Yrotation
                  JOINT LeftHand
                  {
                    OFFSET 24.5451 1.52588e-005 0
                    CHANNELS 3 Zrotation Xrotation Yrotation
                    End Site
                    {
                      OFFSET 0 0 0
                    }
                  }
                }
              }
            }
            JOINT Neck
            {
              OFFSET 5.0226 -0.0266342 0
              CHANNELS 3 Zrotation Xrotation Yrotation
              JOINT Head
              {
                OFFSET 6.69363 2.86102e-005 0
                CHANNELS 3 Zrotation Xrotation Yrotation
                End Site
                {
                  OFFSET 0 0 0
                }
              }
            }
          }
        }
      }
    }
  }
}
MOTION
Frames:	10
Frame Time:	0.0416667
-3.46052 90.0688 29.0194 -76.7564 -3.60886 -94.1211 -173.936 43.8931 87.2643 -27.4228 13.2155 -2.31094 59.9626 3.01812 12.2565 62.2557 32.194 -8.81542 -177.973 -1.34749 92.1202 -31.1136 -23.8519 -7.87607 51.2739 2.73241 2.29429 36.6828 0.732407 39.7607 0.862905 7.12293 -88.8444 12.6062 2.26509 2.04147 0.935775 2.35274 1.9398 -21.5952 1.54703 2.6276 -1.58251 1.54706 2.62762 82.4793 -48.4748 -112.768 23.6311 -11.2663 5.10025 -22.1951 -14.3689 -60.7588 -11.4743 -0.986598 4.84726 -99.5937 -41.6413 61.303 -35.5545 3.92158 13.1115 7.35794 9.3608 -33.7097 7.53847 0.442139 1.79389 14.5912 -5.46245 0.899153 -6.75568 -5.54608 -2.56238 
-12.9946 89.203 31.6155 -77.4767 -1.54242 -93.1083 -175.448 43.0793 87.2312 -39.3943 13.628 -0.700008 61.0333 6.329 17.6773 55.7158 19.7627 -31.3738 -176.953 4.11082 92.7425 -44.4834 -19.8532 -7.61968 34.2093 7.29511 7.74371 29.2941 -1.28874 22.1579 0.738661 7.0351 -88.86 12.7823 2.01218 2.03904 1.11143 2.09999 1.94852 -21.4171 1.30658 2.54931 -1.40444 1.30658 2.54929 81.8301 -48.2712 -113.829 26.1396 -10.1427 7.87388 -16.5696 -13.2196 -55.975 -13.1604 -1.1117 4.93425 -99.4063 -40.8455 61.2577 -32.6771 4.27584 10.8182 7.5834 10.4788 -33.3796 7.68585 0.458817 1.8664 14.7398 -4.36946 -1.1066 -7.22008 -3.94404 -1.74468 
-21.8038 90.7283 34.0524 -79.9474 0.274023 -93.9371 -175.805 33.0696 85.1768 -37.7041 10.4355 0.122548 63.9907 11.532 20.1964 50.07 15.7313 -33.9902 -179.002 19.0235 90.5836 -62.5032 0.0640429 -5.42206 45.2742 1.53524 1.67399 38.3138 0.989784 15.921 0.429318 7.29185 -88.9967 12.2794 1.32904 1.85492 0.607881 1.40939 1.79464 -21.919 0.710277 2.16847 -1.90634 0.710282 2.16847 81.8717 -48.384 -113.722 25.9985 -8.99292 8.9698 -15.961 -15.9358 -51.3691 -9.04013 -0.858904 5.46355 -100.896 -40.9449 58.9456 -28.7818 5.35751 6.80908 6.89672 8.40694 -36.3114 9.84508 0.54879 1.58401 13.7589 -1.94576 -0.426911 -5.74776 -1.78804 -0.614677 
-30.8925 93.5234 36.2842 -80.5206 1.65656 -91.832 -173.757 21.1015 86.5828 -27.3551 12.1099 -1.01085 62.2056 11.8942 21.7299 54.3926 19.1264 -30.5568 178.128 30.2444 92.807 -57.0122 10.3733 -2.05269 60.9852 -2.86334 -1.66141 42.8968 1.72711 13.2211 0.176427 7.28178 -89.4442 12.305 0.61423 1.03957 0.633783 0.659404 1.01152 -21.8981 0.273434 1.17609 -1.88547 0.273449 1.1761 81.7678 -49.03 -113.634 25.9498 -8.42712 11.4122 -12.9414 -16.5855 -45.6014 -9.35882 -0.8423 4.8794 -100.46 -40.415 59.3936 -26.2897 3.97378 2.632 8.53736 7.13087 -42.5726 11.192 0.62088 1.62456 11.2991 0.611054 0.0159332 -5.43906 0.599898 0.62974 
-40.3512 94.7136 37.5423 -81.0666 1.11956 -91.2061 -173.206 10.6175 87.6831 -19.0917 14.0767 -1.29871 60.9908 10.6991 20.9788 57.5828 22.1952 -26.8507 177.962 34.1582 92.0629 -35.0699 13.2304 1.4911 65.4737 -2.80701 -1.55377 43.1305 1.59175 11.1792 -0.212983 7.26208 -89.6812 12.3508 -0.27175 0.667926 0.679671 -0.242091 0.679231 -21.8548 -0.459919 0.555385 -1.84211 -0.459925 0.555373 81.9494 -50.2859 -112.893 25.5401 -8.17366 15.6925 -11.0255 -15.7247 -43.8184 -5.25173 -0.525427 4.12293 -100.16 -39.7375 59.5653 -23.1572 2.67379 -0.301422 9.71542 5.36893 -49.8811 11.8905 0.607245 1.20101 10.3756 2.12556 -0.33729 -5.57997 2.17669 2.13035 
-50.5484 93.7364 37.8248 -82.2248 -1.0946 -91.8273 -172.131 2.50088 88.3438 -17.9321 17.7931 -1.67707 62.7492 10.4624 18.5316 56.1276 23.3473 -19.2234 -177.65 33.6028 89.0553 -9.76514 11.4085 -0.389485 63.7843 -1.6904 -0.898192 50.4645 3.18085 14.236 -0.643775 7.36832 -89.6682 12.1412 -1.12276 0.786246 0.470425 -1.08709 0.834902 -22.0679 -1.30716 0.412421 -2.05529 -1.30717 0.412421 81.1787 -52.6881 -113.148 24.2486 -8.29708 19.127 -9.89593 -15.6536 -41.9767 -3.25921 -0.386728 3.6761 -99.6788 -38.3747 59.7165 -19.7632 1.60749 -3.77915 11.095 4.73408 -55.4204 11.644 0.586408 1.13261 10.4451 2.51234 -1.52172 -5.39619 2.83989 2.96967 
-61.7358 91.5164 37.6044 -84.8474 -4.91444 -91.7614 -171.732 -4.03241 90.7608 -23.0458 25.8886 -0.357788 58.3745 6.51559 17.6304 71.2881 35.3202 -18.8244 -177.883 35.4123 87.9405 -13.2327 12.6636 -0.494244 66.2486 -1.58541 -0.82286 52.0186 3.49774 14.2543 -1.17848 7.52105 -89.767 11.8442 -2.23381 0.704507 0.174931 -2.20064 0.802176 -22.3759 -2.34222 0.000225583 -2.36324 -2.34224 0.000225695 81.5445 -52.8162 -112.573 25.2613 -7.88372 21.7213 -10.4662 -16.6052 -41.0005 -0.511311 -0.230574 3.83657 -99.3359 -37.5404 59.8909 -19.1152 0.80497 -4.76686 10.8444 3.87912 -57.2209 12.4731 0.650804 1.31645 9.9214 3.01767 -1.47227 -5.80983 3.31048 3.73422 
-74.6348 89.8474 37.1737 -86.5922 -6.03667 -88.0736 -171.925 -4.03145 97.0821 -34.6507 27.7615 2.02493 45.9849 -6.10703 5.76855 67.7291 37.731 -7.82942 179.305 36.6218 92.1458 -30.7914 13.1243 1.56507 60.9589 -0.788938 -0.328575 44.0216 2.03363 15.178 -1.24413 7.48285 -90.3373 11.9068 -2.63286 -0.390754 0.238568 -2.6475 -0.274425 -22.3149 -2.39362 -1.16439 -2.30224 -2.39358 -1.16438 81.7253 -52.3204 -112.489 25.5571 -6.91775 22.1438 -8.90629 -17.4506 -36.3252 0.231228 -0.175197 4.48859 -100.757 -39.5121 58.5065 -21.2135 1.40433 -1.86678 9.03412 3.35685 -53.3873 13.1551 0.65733 1.11275 10.6177 4.02119 0.434563 -8.26637 3.76734 4.4978 
-85.9439 89.9869 36.3935 -88.6518 -3.07629 -86.8523 -173.28 4.71415 98.9893 -54.0435 20.8932 2.00742 36.9675 -12.1701 2.21003 43.6784 16.3873 -0.348598 177.85 33.2415 96.238 -41.644 10.7148 2.1829 64.6623 -1.55011 -0.779549 35.7546 0.389269 18.1006 -0.653462 7.56329 -90.5151 11.7393 -1.54137 -0.862773 0.0689766 -1.57782 -0.794098 -22.4685 -1.21082 -1.28613 -2.45582 -1.21083 -1.28614 81.1444 -50.7843 -113.9 27.0941 -5.97962 19.2192 -8.4055 -17.0824 -35.3993 0.823191 -0.0898184 6.34862 -101.835 -40.8761 57.4396 -24.3529 4.4457 -0.472122 6.98384 4.99539 -43.7835 13.1789 0.723219 1.59223 10.3938 3.34461 1.16696 -8.5246 2.93937 3.92551 
-96.5449 92.5419 35.3 -88.8096 0.425796 -88.9972 -173.068 16.9459 94.5441 -60.0665 19.1068 0.25091 43.498 -7.18735 7.86339 51.2769 23.0439 -5.55979 -179.991 24.3479 96.3154 -38.1853 9.86862 -0.46899 68.4186 -2.25529 -1.17925 33.1265 -0.202914 18.8135 -0.16716 7.4435 -90.1316 11.9865 -0.39438 -0.219648 0.315601 -0.403666 -0.202082 -22.2197 -0.310133 -0.328024 -2.20708 -0.310135 -0.328025 81.3243 -49.9416 -113.952 27.6092 -7.46405 15.4673 -11.5825 -15.8769 -43.9231 -3.28444 -0.424413 5.76558 -101.935 -41.5495 57.599 -28.7694 6.03411 2.98749 6.02851 8.20256 -35.1875 13.7285 1.03918 3.60455 8.90951 3.13477 0.790455 -8.8369 2.83038 3.67623 
